<svg width="1192" height="657" viewBox="0 0 1192 657" fill="none" xmlns="http://www.w3.org/2000/svg">
<path d="M594 3C592.267 4.86667 572 47.4 572 49.1334C572 49.5334 569.067 56.6 565.467 64.8667C561.867 73 558.267 82.0667 557.333 85C556.4 87.9333 553.733 94.2 551.333 99C548.933 103.8 544.8 113.4 542 120.333C537.067 132.867 527.067 156.333 515.467 182.867C508.8 197.8 508.133 201.267 511.467 202.6C514.533 203.8 516.4 200.733 522.533 185.133C525.467 177.667 530.933 164.467 534.8 155.667C538.533 146.867 543.867 134.2 546.667 127.667C549.467 121 554.533 109 558 101C561.333 92.8667 566 81.9333 568.133 76.6C570.267 71.2667 573.6 63.6667 575.6 59.9333C577.467 56.0667 583.2 43.4 588.133 31.6667L597.067 10.3333L605.467 9.53336C614 8.60001 861.333 7.93332 861.333 8.73334C861.333 10.4667 854.533 28.7333 852.133 33.2667C850.667 36.4667 847.867 42.7333 846.133 47.2667C844.4 51.9333 839.333 63.9333 834.8 74.0667C830.4 84.3333 826.4 93.9333 825.867 95.4C825.467 97 822.933 102.467 820.533 107.4C818 112.333 812.267 125.533 807.867 136.733C799.733 157.133 794.8 168.733 785.333 189.667C782.4 195.933 778.4 205.533 776.267 211C774 216.467 770.533 224.867 768.267 229.667C766 234.467 758.667 251.267 752 267C745.2 282.733 739.333 296.2 738.667 297C738.133 297.667 736 302.467 734 307.667C732 312.733 727.333 323.533 723.6 331.667C712.933 355 705.6 372.067 699.867 386.067C697.067 393.267 692.533 403.267 690 408.333C685.067 418.067 685.467 419.133 692.267 416.467C694.267 415.667 696.267 412.867 697.867 408.733C700.8 401 720.8 354.867 728 339C730.933 332.733 735.733 321.667 738.8 314.333C741.733 307 745.333 299.133 746.667 297C748 294.733 752.533 284.333 756.667 273.667C760.933 263 766.133 250.733 768.4 246.333C770.533 241.933 774.667 233 777.333 226.333C783.6 211.4 796.667 180.867 803.733 165C806.533 158.333 810.133 149.667 811.733 145.667C813.2 141.667 816.533 133.533 819.067 127.667C821.6 121.8 828.267 106.2 833.867 93C839.467 79.8 845.333 66.3333 846.933 63C852.267 51.6667 858.933 35.6667 862.8 24.4667C867.333 11.9333 870 6.20001 873.067 2.60001C874.933 0.466675 868.533 0.333344 735.467 0.600006C613.333 1 595.6 1.26666 594 3Z" fill="#FF6B00"/>
<path d="M275.467 19.2667C271.2 29 266.533 40.2 265.2 44.2C263.733 48.2 262.133 52.0667 261.333 53C260 54.6 250.267 77.5333 239.867 103.667C236.933 111 233.733 118.733 232.667 121C227.733 132.2 223.867 142.067 224.4 142.6C224.8 142.867 226.533 142.733 228.267 142.333C232 141.4 232.133 141.133 248.667 100.333C254.667 85.2667 262.4 67 265.733 59.6667C268.933 52.3333 274.8 38.4667 278.667 29C282.533 19.4 286.4 10.8667 287.2 9.8C288.4 8.33334 303.2 8.06668 380.667 8.73334C431.2 9.26668 486.533 9.66667 503.333 9.66667C520.267 9.66667 534.8 10.2 535.867 10.8667C537.2 11.8 536.667 14.2 532.8 23.5333C530.133 29.8 525.867 40.2 523.2 46.6C520.667 53.1333 515.6 64.8667 512 73C504.8 89.4 490.667 122.6 479.333 149.533C475.2 159.4 472.133 168.2 472.533 169.133C474 173 478.533 169.133 482 161.267C490.933 141.133 515.467 83 523.467 63.1333C527.467 53.2667 531.867 43.4 533.2 41.1333C534.667 38.8667 537.6 32.4667 539.867 26.7333C542 21.1333 545.467 13.4 547.333 9.53334C549.2 5.66667 550.667 2.46667 550.667 2.46667C550.667 2.33334 490.533 2.20001 416.933 1.93333L283.333 1.40001L275.467 19.2667Z" fill="#2F9B2E"/>
<path d="M915.467 4.60001C914.4 6.33334 912.533 10.0667 911.2 13C910 15.9333 907.867 21 906.4 24.3333C904.8 27.6667 901.333 36.4667 898.4 44.0667C895.6 51.6667 891.467 61.8 889.2 66.7333C886.933 71.6667 881.6 84.0667 877.333 94.3333C873.067 104.6 866.267 120.467 862.133 129.667C855.2 145.4 838.8 184.333 828.4 209.667C825.867 215.933 821.467 225.8 818.667 231.667C812.533 244.333 806.667 257.8 797.333 280.333C788.933 300.867 780.933 319.4 775.2 331.4C772.8 336.333 770.133 342.6 769.2 345.4C768.4 348.067 762.4 362.6 756 377.667C749.6 392.733 743.867 406.467 743.333 408.333C742.8 410.2 741.6 413 740.533 414.6C738.8 417.267 738.8 417.667 740.667 417.667C744.8 417.667 747.467 415.133 750.267 408.733C756.933 393.8 763.2 379.133 766 371.667C767.733 367.267 773.067 354.867 777.867 344.067C782.667 333.267 786.667 323.933 786.667 323.533C786.667 322.6 790.8 313 802 288.333C804.533 282.867 809.867 270.467 813.733 261C817.733 251.4 824.933 234.6 829.6 223.667C834.4 212.6 843.067 192.2 849.067 178.333C854.933 164.333 863.467 144.333 868 133.667C872.533 123 879.467 106.467 883.2 97C887.067 87.4 892.667 74.6 895.733 68.3333C898.667 62.0667 903.867 49.8 907.067 41C915.067 19.4 919.867 10.0667 923.2 9.13333C927.867 7.79999 1176.53 8.33334 1178.53 9.53333C1180.13 10.4667 1178.8 14.7333 1171.6 31.9333C1166.67 43.6667 1161.87 55.5333 1160.8 58.4667C1159.73 61.2667 1155.87 69.9333 1152.27 77.6667C1148.53 85.4 1141.33 102.2 1136.27 115C1124.27 145 1112.4 172.467 1096.67 207C1094.13 212.467 1085.73 232.6 1077.87 251.667C1070 270.733 1060.67 292.6 1057.07 300.333C1053.47 308.067 1047.2 322.467 1043.33 332.333C1039.47 342.2 1034.13 355.267 1031.6 361.267L1026.8 372.2L1031.07 371.4C1033.47 371 1035.87 370.2 1036.4 369.667C1037.07 369.133 1040.27 361.267 1043.47 352.2C1046.8 343.133 1052.4 329 1056 321C1061.87 307.8 1070.27 288.733 1081.6 262.333C1085.6 253 1091.6 238.733 1106.27 203C1110.67 192.333 1117.87 176.2 1122.4 167C1126.8 157.8 1132.93 143.933 1135.73 136.333C1138.67 128.6 1148.67 104.333 1158 82.3333C1167.33 60.3333 1176.27 38.7333 1178 34.3333C1183.47 19.5333 1189.47 6.46667 1191.6 4.06665C1193.6 1.79999 1187.73 1.66666 1055.6 1.66666H917.333L915.467 4.60001Z" fill="#2F9B2E"/>
<path d="M281.333 152.6C220.667 154.067 218.8 154.867 170.8 199.4C130.8 236.467 123.733 243.533 121.2 249C118.267 255.8 115.733 280.333 115.6 306.333C115.333 329.267 116.8 335 125.333 346.467C133.733 357.533 138 359.533 155.867 360.333L171.067 361L172.533 367.133C176.133 381.133 187.2 393.533 202.4 400.733C210.667 404.6 212.4 405 224.667 405C236.667 404.867 238.933 404.467 248.133 400.6C253.733 398.2 260 394.333 262.133 391.933C267.867 385.8 278.4 369.667 279.333 365.533L280.267 361.933L302.4 361.133C314.667 360.733 334.933 360.333 347.333 360.333C359.867 360.333 392 360.2 418.933 360.2H467.867L469.333 365.933C473.467 381.133 482.533 391.667 498.533 399.4C509.2 404.6 510.8 405 521.333 405C531.2 405 534 404.333 542.933 400.467C556.533 394.733 564.8 387.133 571.067 375C573.733 369.667 576 364.067 576 362.467C576 359.533 576.533 359.4 591.067 358.6C613.467 357.4 618.4 355 624.667 342.467C628.4 334.867 628.8 325.933 626.8 296.867C625.333 277.933 622.667 271 613.333 261.533C601.867 250.067 582.8 243.133 540.667 235C515.467 230.2 516 230.333 504.4 220.733C498.533 215.667 486.133 205.267 476.8 197.4C446.8 172.2 426.933 160.067 406.533 154.733C396.267 152.067 392.133 151.8 357.333 151.667C336.4 151.667 302.267 152.067 281.333 152.6ZM382.933 174.333C408 177.8 417.6 182.067 442.933 201.133C459.467 213.533 486.933 236.467 486.267 237.267C486 237.533 450.133 237.933 406.533 238.067L327.333 238.333L326.933 207C326.8 189.8 326.933 175 327.2 174.067C328.267 171.533 364 171.8 382.933 174.333ZM308 205.667C308 222.733 307.733 237 307.467 237.267C306.533 238.333 284.8 239.133 249.867 239.4C209.6 239.8 208 240.067 208 246.467C208 248.2 209.333 251 210.933 252.6L213.733 255.4L366.8 254.6L519.733 253.8L536.267 257.133C564.267 262.867 573.6 265.533 584.933 271C594.4 275.667 596.133 277.133 598.533 282.067C602.133 289.8 604.4 307.933 603.333 321.4C602.933 327.533 602.133 333.4 601.733 334.467C600.8 337 578.667 337.267 578.667 334.6C578.667 329.4 568.667 312.733 560.933 305.133C548.4 292.6 534 288.333 513.2 291.267C491.733 294.2 474.667 309.4 469.333 330.333L467.2 338.333L451.333 339.267C442.667 339.8 400.667 340.067 358.133 339.933L280.667 339.667L279.733 333.267C278.8 326.333 272.933 314.733 265.733 306.067C262.667 302.2 258 298.867 250.933 295.4C241.2 290.733 240 290.467 227.333 290.333C211.2 290.333 202.133 292.867 192.667 299.933C184.667 306.067 172.4 323.8 171.733 329.933C171.467 333.533 170.667 334.467 167.333 335.133C164.267 335.8 164 336.067 166.4 336.2C172.267 336.467 169.2 339 163.067 338.867C158.533 338.867 157.467 338.467 159.333 337.8C161.333 337 160.4 336.6 155.6 336.067C148 335.133 145.733 333.4 142.267 325.8C140.133 320.867 139.733 317.133 139.867 302.467C140.133 277.533 141.733 264.2 145.2 258.6C148.667 253 197.2 207 209.333 197.933C220.933 189.267 235.733 179.533 240.667 177.533C244.267 176.067 285.067 173.8 302.4 174.2L308.267 174.333L308 205.667ZM538.4 316.6C544.133 319.267 551.6 327.4 554.4 334.067C556.4 338.867 556.4 351.133 554.4 357.933C553.6 360.867 550.267 366.2 547.067 369.667C535.6 382.333 522.933 385 508.133 377.533C498.933 372.867 494.4 367.4 491.2 356.867C488.667 348.333 488.8 343.133 492 334.733C498.933 315.933 519.867 307.8 538.4 316.6ZM240.933 316.733C246.933 319.933 254.533 327.8 256.8 333.133C259.733 340.067 259.2 355.4 255.867 362.067C252.133 369.4 246 375.933 239.467 379.267C232.533 382.867 218 382.2 209.733 377.933C199.333 372.6 192 359.933 192 347.533C192 334.6 201.6 319.4 212.267 315.4C218.267 313.133 235.467 313.933 240.933 316.733Z" fill="#2F9B2E"/>
<path d="M390.133 376.2C386.933 376.867 385.733 378.2 383.867 383C382.533 386.333 379.6 393.8 377.333 399.667C375.067 405.533 371.6 412.733 369.733 415.533C367.067 419.533 366.8 420.6 368.667 419.933C369.867 419.4 372.4 419 374.133 419C376.133 419 377.733 418.067 378.267 416.6C378.667 415.4 380.4 411 382.133 407C386.8 395.667 394.533 375.8 394.267 375.667C394.133 375.533 392.267 375.8 390.133 376.2Z" fill="#2F9B2E"/>
<path d="M436.133 376.2C433.467 376.867 431.6 380.333 425.067 395.667C420.8 405.8 416.4 415.133 415.333 416.333C414.267 417.533 413.333 418.867 413.333 419.267C413.333 420.2 421.867 418.733 423.467 417.4C425.067 416.2 440.667 376.467 439.867 375.8C439.6 375.667 437.867 375.8 436.133 376.2Z" fill="#FF6B00"/>
<path d="M1130 413.933C1124.13 421.4 1119.2 427.933 1118.93 428.333C1118.8 428.733 1122.67 428.733 1127.6 428.6C1136.4 428.067 1136.67 427.933 1157.07 414.2L1177.6 400.333H1159.07H1140.67L1130 413.933Z" fill="#FF6B00"/>
<path d="M1023.33 407.533C1023.07 409 1021.87 417.8 1020.67 427C1010 511.667 1008.8 519.4 1004.13 525.667C999.333 532.2 994.4 533.933 979.333 534.2L965.333 534.333V547.933V561.533L973.067 562.6C977.2 563.133 987.333 563.667 995.333 563.667C1008.27 563.667 1010.8 563.267 1017.33 560.2C1036.13 551.4 1040 543.133 1046.53 497.533C1048 487.667 1050.13 473 1051.33 465C1052.53 456.867 1054.93 440.467 1056.67 428.333C1058.4 416.333 1059.73 406.333 1059.6 406.2C1059.47 406.067 1051.33 405.667 1041.6 405.267C1024.4 404.6 1024 404.733 1023.33 407.533Z" fill="#FF6B00"/>
<path d="M27.3333 409.933C26.5333 415.133 24.8 426.6 15.3333 492.333C11.3333 519.8 7.19998 546.733 6.26665 551.933C5.19998 557.267 4.53332 561.8 4.79998 561.933C4.93332 562.2 27.6 562.2 55.0667 561.933L104.933 561.667L105.867 552.6C106.4 547.667 107.2 541.133 107.6 537.933L108.4 532.333H76.1333H43.8666L44.8 523.667C45.3333 519 46.4 511.267 47.2 506.733L48.6666 498.333L76.6667 497.667L104.667 497L106.267 485.667C107.067 479.4 107.867 473 107.867 471.267L108 468.2L81.0667 468.333L54 468.467L54.2667 460.733C54.5333 456.467 55.3333 449 56.1333 443.933L57.6 435H88.1333H118.667L118.8 431.933C118.8 430.333 119.6 423.8 120.533 417.267L122.133 405.667H75.2H28.1333L27.3333 409.933Z" fill="#2F9B2E"/>
<path d="M573.333 406.6C560.8 408.733 555.6 413.933 555.467 424.467C555.333 433.933 558.133 436.333 569.6 436.333C584.4 436.333 591.6 431.8 592.933 421.8C594.4 411.4 585.467 404.467 573.333 406.6Z" fill="#2F9B2E"/>
<path d="M248 431.8C246.533 436.6 245.333 441.667 245.333 443C245.333 448.067 243.867 449.533 240 448.733C235.733 447.933 235.867 447.4 233.467 463.133C231.733 473.533 231.733 475 233.067 474.867C233.6 474.733 235.6 474.733 237.733 474.867C241.067 475 241.333 475.4 241.333 480.6C241.333 483.667 239.467 498.867 237.2 514.333C234.933 529.667 233.467 544.2 234 546.467C235.067 552.6 239.2 557.267 247.067 561.267C253.067 564.2 255.733 564.733 266 564.867C272.667 564.867 280.8 564.467 284.133 563.8L290.4 562.867L292 551.933C292.8 545.933 293.867 539.667 294.267 538.067C294.933 535.133 294.667 535 284.533 535.267C271.6 535.533 268 533.933 268 527.933C268 519.267 274.667 477.267 276.267 475.667C276.533 475.4 284 475 292.933 474.733L309.2 474.333L310 465.667C310.4 460.867 311.067 455.667 311.333 454.2C311.867 451.8 311.2 451.267 306.933 450.467C304.267 450.067 297.067 449.667 291.067 449.667C285.067 449.667 279.733 449.133 279.333 448.333C278.933 447.667 279.733 441.933 281.333 435.533C282.8 429.267 284 423.933 284 423.533C284 423.267 276.533 423 267.333 423H250.8L248 431.8Z" fill="#2F9B2E"/>
<path d="M358.533 447C351.067 448.333 341.067 452.6 335.2 457C331.333 460.067 320.4 475.933 321.467 476.867C321.733 477.133 328.133 478.067 335.733 478.867L349.467 480.467L352.133 477C356.133 472.067 361.6 469.667 369.333 469.667C375.2 469.667 376.8 470.333 380.133 473.533C383.2 476.733 384 478.6 384 483.533C384 490.333 384.667 489.933 364.667 494.2C343.733 498.6 331.333 502.067 324.667 505C304.4 514.333 298.933 540.6 314 555.8C327.2 568.867 348.4 568.867 368.133 555.533C371.867 553 375.2 551 375.467 551C375.733 551 376 553.4 376 556.333V561.667H390H403.867L404.533 557.267C410.133 522.333 414.8 482.333 414.4 474.2C414 465.267 413.6 464.067 409.467 459.8C398.533 448.467 378.933 443.533 358.533 447ZM379.333 515.933C378.133 523.933 375.333 530.733 371.6 534.867C367.867 538.867 358.4 543 352.667 543C347.067 543 340.533 537.667 339.333 532.2C337.467 524.067 343.6 519.533 365.067 513C380.267 508.333 380.533 508.333 379.333 515.933Z" fill="#2F9B2E"/>
<path d="M640.667 446.867C632.667 448.2 618.8 456.2 611.6 463.4C599.333 475.4 593.467 494.867 595.2 517.933C596.933 543.933 607.733 557.267 632.133 563.667C646.667 567.533 664.4 564.867 682.533 555.8C703.733 545.4 714.933 520.733 713.067 489.133C711.867 469.8 703.6 457.667 686.933 449.933C680.267 447 677.333 446.467 662.667 446.2C653.467 446.067 643.6 446.333 640.667 446.867ZM671.6 475.8C678.533 480.867 680.267 486.2 679.467 500.067C678.8 514.6 674.933 524.2 667.333 530.867C659.067 538.067 646.133 539.8 638.533 534.6C631.6 529.933 628 522.6 628 512.733C628 494.6 634.133 481.267 645.467 475.267C652.933 471.267 665.867 471.533 671.6 475.8Z" fill="#2F9B2E"/>
<path d="M895.733 447.667C879.733 451.667 867.2 461.533 858.133 476.867C849.733 491.267 846.667 519.533 851.867 535.133C855.6 546.333 858 550.2 864.133 555.4C878.133 567.4 906.8 569.133 927.867 559.267C937.333 554.867 948.267 544.067 950.267 537.133C951.2 534.2 951.733 531.667 951.6 531.533C951.467 531.4 945.067 530.467 937.467 529.533L923.733 527.933L919.467 532.6C914 539 910.933 540.333 902.267 540.333C896.933 540.333 893.867 539.533 890.533 537.267C884.8 533.4 880 525 880 518.6V513.667H917.867H955.6L956.533 507.533C960.533 477.667 951.333 455.933 931.333 448.333C924.8 445.8 904.267 445.4 895.733 447.667ZM918.133 470.467C922.933 473.667 928 483 928 488.733V493.667H921.067C917.2 493.8 907.6 494.067 899.867 494.6C890.933 495 885.333 494.867 884.8 493.933C883.733 492.2 887.2 482.467 890.8 477.4C892.4 475.267 895.6 472.2 897.867 470.867C903.067 467.667 913.467 467.533 918.133 470.467Z" fill="#2F9B2E"/>
<path d="M1105.6 447.133C1097.07 448.733 1086.53 453.933 1081.6 459C1077.33 463.267 1069.87 476.067 1071.07 477.133C1071.33 477.533 1077.87 478.2 1085.47 478.867C1098.8 479.933 1099.47 479.8 1102 476.867C1108.53 469.533 1121.87 467.267 1128.4 472.333C1134.53 477.133 1134.93 491 1128.93 491C1122.8 491.133 1084.93 500.333 1078.27 503.4C1059.47 512.067 1050.8 528.867 1056.67 545.533C1059.73 554.2 1063.47 558.467 1071.33 562.333C1084 568.6 1101.47 566.067 1117.2 555.667C1121.07 553.133 1124.53 551 1124.8 551C1125.07 551 1125.33 553.4 1125.33 556.333V561.667H1139.33C1147.07 561.667 1153.33 561.267 1153.33 560.6C1153.33 560.067 1153.87 556.067 1154.67 551.667C1155.33 547.267 1156.27 540.067 1156.67 535.667C1157.07 531.267 1158.13 522.6 1159.2 516.333C1164.93 480.733 1165.2 471.4 1160.53 462.467C1153.87 449.667 1128.53 442.6 1105.6 447.133ZM1126.8 521.533C1123.47 532.467 1120 537.267 1112.8 540.467C1097.73 547.267 1084.53 539.133 1089.87 526.467C1092.27 520.733 1098 517.667 1115.6 512.6C1130.93 508.2 1130.8 508.2 1126.8 521.533Z" fill="#FF6B00"/>
<path d="M164.267 449C151.867 452.467 144.133 456.467 138.8 462.333C122 480.6 123.2 502.333 141.6 511.8C143.867 513 152.667 515.4 161.2 517.133C177.333 520.467 183.067 523.267 183.733 528.2C184.4 532.867 177.6 538.467 168.933 540.467C158.4 542.733 152 541.133 149.333 535.4C148.133 532.733 146.667 531.267 145.467 531.667C144.533 532.067 138.267 532.733 131.867 533.267C118.667 534.2 118.533 534.333 121.467 544.733C126 561 148.8 569.267 172.933 563.267C199.867 556.467 213.733 542.733 213.733 522.867C213.733 506.733 204.133 498.333 179.467 493.667C165.2 490.867 159.2 488.333 158 484.2C156.667 480.067 161.067 474.733 168.133 472.067C179.467 467.667 188.8 469.933 192 477.667C193.067 480.2 194.4 481.533 195.467 481.133C196.533 480.733 202.4 479.667 208.667 478.867L220.133 477.267L219.2 471.8C218.133 465.4 214.667 457.933 211.067 454.733C204 448.333 178 445.133 164.267 449Z" fill="#2F9B2E"/>
<path d="M469.867 448.867C443.6 455.4 427.867 481.667 427.6 519C427.6 529.133 428.133 533.267 430.667 539.533C437.333 557 452.4 565.667 475.2 565.667C493.067 565.533 512.267 557.4 520.133 546.6C523.867 541.533 528.533 532.2 527.733 531.667C526.8 531.133 501.733 524.333 500.4 524.333C499.467 524.333 497.467 526.733 495.867 529.667C492.4 535.8 485.733 539 476.267 539C470.933 539 469.2 538.333 466.4 535.267C461.067 529.533 460 526.467 460 516.733C460 506.6 462.667 494.733 466.933 485.8C472.8 473.667 488.533 468.467 497.2 475.8C499.467 477.667 501.333 480.067 501.333 481.133C501.333 484.2 503.733 484.333 519.333 482.6L534 480.867L533.6 476.867C532.533 465.933 525.6 455.933 515.467 450.6C510.8 448.2 507.333 447.667 493.333 447.4C483.067 447.267 474 447.8 469.867 448.867Z" fill="#2F9B2E"/>
<path d="M794.667 449.133C789.867 450.2 782.133 452.867 777.467 455C767.867 459.533 766.667 459.8 766.667 457C766.667 455.933 765.467 453.8 764 452.333C761.733 450.067 759.6 449.667 748.933 449.667H736.4L733.467 471.933C730.933 490.867 724.667 537 721.733 557.267L720.933 563L736.8 562.6L752.667 562.333L756.933 533C763.467 487.667 765.467 481.667 776.533 474.467C780.533 471.8 783.6 471 789.067 471C795.467 471 796.8 471.533 800.8 475.533C803.333 478.067 805.333 481.133 805.333 482.6C805.333 483.933 803.2 501.8 800.667 522.2C798.133 542.733 796 560.067 796 560.867C796 561.8 801.067 562.2 811.6 562.067L827.333 561.8L831.6 532.733C837.467 491.4 839.2 475 838.133 467.933C835.733 451.933 817.333 443.933 794.667 449.133Z" fill="#2F9B2E"/>
<path d="M554.133 449.933C553.867 450.867 552.533 459.8 551.333 469.667C548.4 494.2 541.733 540.867 539.467 552.333L537.733 561.667H554.667H571.6L572.4 556.6C573.2 551.8 586.667 449.933 586.667 448.867C586.667 448.6 579.467 448.333 570.667 448.333C558.933 448.333 554.4 448.733 554.133 449.933Z" fill="#2F9B2E"/>
<path d="M25.8666 590.6C24.6666 593.4 21.7333 600.467 19.3333 606.333C16.8 612.2 12.6666 623 9.99997 630.333C7.3333 637.667 3.99997 645.667 2.66663 647.933L0.133301 652.333L76.4 652.6C118.4 652.867 182.133 653 218.133 653H283.467L289.067 640.333C292.133 633.4 295.867 624.6 297.2 621C301.067 610.733 310.8 589.267 312.267 587.267C313.333 586.067 312.667 585.667 309.467 585.667C304.4 585.667 303.333 587.267 296 605.667C292.933 613.4 288.4 623.933 286 629C283.467 634.2 281.067 640.067 280.533 642.2L279.6 646.067L147.067 645.267C74.1333 644.867 14.1333 644.2 13.7333 643.8C12.4 642.467 32.4 591.667 35.6 587.933C37.6 585.8 37.4666 585.667 32.8 585.667C28.4 585.667 27.6 586.2 25.8666 590.6Z" fill="#2F9B2E"/>
<path d="M348 593.933C346 598.6 340 612.467 334.667 625C329.467 637.4 324.267 649 323.2 650.6C321.333 653.533 321.467 653.667 324.533 653.667C330 653.667 332.8 649.533 341.333 629C345.867 617.933 352.133 603.8 355.2 597.267L360.8 585.667H356.267C352.133 585.667 351.6 586.2 348 593.933Z" fill="#FF6B00"/>
<path d="M395.2 606.867C381.867 615 384.8 628.067 401.2 633.4C410.133 636.2 412 638.733 408.933 643.533C406.933 646.467 405.6 647 400 647C395.067 647 392.8 646.333 390.8 644.2C388.4 641.533 388 641.533 384.133 643.667C380.533 645.4 380.133 646.067 381.333 648.467C385.6 656.2 399.6 658.733 410.267 653.533C416.8 650.467 420 645.4 420 638.6C420 632.2 417.867 630.067 407.333 625.8C398.8 622.333 398 621.8 398 618.2C398 614.867 398.667 614.2 403.067 613.133C407.333 612.067 408.667 612.333 412 614.733C415.333 617.267 416.4 617.4 419.333 616.067C423.6 614.2 423.6 613 418.8 608.2C415.333 604.867 413.867 604.333 407.067 604.333C401.867 604.333 398 605.133 395.2 606.867Z" fill="black"/>
<path d="M432.8 607.933C429.2 626.6 427.867 641.133 429.2 645.933C433.467 660.2 457.2 659.933 464.267 645.667C466.133 641.933 472 611.4 472 605.667C472 605 469.867 604.333 467.333 604.333C464.8 604.333 462.667 604.733 462.667 605.267C462.533 611.533 456.933 640.067 455.333 642.467C452.933 646.2 447.6 647.8 442.8 646.2C439.733 645.133 439.333 644.067 438.933 638.333C438.667 634.733 439.467 626.333 440.533 619.533C443.333 603.667 443.333 604.333 438.133 604.333C434.133 604.333 433.467 604.867 432.8 607.933Z" fill="black"/>
<path d="M484 628.333C477.467 641.667 472 653.133 472 653.8C472 654.467 474.133 655 476.8 655C481.067 655 481.733 654.467 483.733 649.667C486.267 643.533 488.267 642.6 498.667 643.267C504.8 643.533 506 644.067 506.4 646.333C507.6 654.6 507.867 655 512.8 655C517.467 655 517.467 654.867 516.533 650.6C516 648.333 513.733 637 511.467 625.667L507.2 605L501.6 604.6L496 604.2L484 628.333ZM502.533 624.867C504.667 636.6 504.8 636.333 497.333 636.333C493.733 636.333 490.667 635.933 490.667 635.267C490.667 632.867 499.333 615.133 500.267 616.067C500.667 616.6 501.733 620.6 502.533 624.867Z" fill="black"/>
<path d="M540 604.6C540 605.4 543.867 622.733 547.333 637.667C549.2 646.067 551.333 653.533 551.867 654.067C552.533 654.733 554.933 655 557.333 654.733C562.267 654.333 560.667 656.6 579.867 619.267L587.6 604.333H582.4H577.2L567.6 623.8C562.4 634.467 557.867 642.6 557.6 641.933C557.333 641.133 555.6 632.6 553.6 622.733L550 605L544.933 604.6C542.267 604.333 540 604.333 540 604.6Z" fill="black"/>
<path d="M590.933 629.133C584.133 642.733 578.667 654.067 578.667 654.467C578.667 654.733 580.933 655 583.733 655C588.267 655 588.933 654.6 591.333 649.267L594 643.667H603.333H612.667L613.867 649.267C615.067 654.733 615.467 655 620 655H624.8L619.467 629.667L614.133 604.333H608.667H603.2L590.933 629.133ZM609.733 625.4C610.8 630.733 611.333 635.267 610.933 635.667C609.867 636.733 598.933 636.467 598.267 635.267C597.6 634.067 606.533 614.333 607.333 615.267C607.733 615.533 608.8 620.2 609.733 625.4Z" fill="black"/>
<path d="M645.2 607.4C634.267 613.133 627.733 628.067 630.533 640.6C633.467 653.533 647.2 659.933 659.067 653.8C662.933 651.8 664 651.667 664 653.133C664 654.333 665.467 655 667.733 655C671.467 655 671.467 654.867 673.467 642.333L675.467 629.667H666.4H657.333V633.533C657.333 637.133 657.6 637.4 661.333 636.867C669.067 635.533 664.533 644.6 656.133 647.133C640.8 651.667 633.733 630.467 646.267 617.4C652.4 611 661.733 611.267 666.4 617.933C668.4 620.733 669.2 620.867 673.867 619C676.933 617.933 677.067 617.4 675.733 613.533C672.533 604.333 657.067 601.267 645.2 607.4Z" fill="black"/>
<path d="M689.467 629.133C682.8 642.867 677.333 654.333 677.333 654.6C677.333 654.733 679.467 655 682 655C686.267 655 686.933 654.467 689.6 649L692.533 642.867L701.867 643.267L711.2 643.667L712.4 649.267C713.467 654.733 713.733 655 718.133 655C720.933 655 722.667 654.333 722.533 653.267C722.533 652.467 720.267 641.133 717.6 628.333L712.533 605L707.067 604.6L701.467 604.2L689.467 629.133ZM707.733 624.067C710.267 636.333 710.267 636.333 702.667 636.333C699.067 636.333 696 636.067 696 635.667C696 634.067 704.4 616.333 705.2 616.333C705.733 616.333 706.8 619.8 707.733 624.067Z" fill="black"/>
<path d="M760.667 606.2C755.2 608.733 748.533 615.933 745.867 622.333C742.8 629.8 742.933 642.333 746.267 646.867C753.2 656.067 764.4 658.867 773.067 653.667C776.533 651.533 777.333 651.4 777.333 653C777.333 654.333 778.667 655 781.333 655C783.6 655 785.333 654.6 785.333 653.933C785.333 652.467 788 636.067 788.667 632.6C789.333 629.8 789.067 629.667 780 629.667H770.667V633.8C770.667 637.8 770.933 637.933 774.667 637.133C779.467 636.2 780 638.333 776 643.267C770.933 649.8 759.067 648.867 755.333 641.533C752.667 636.467 752.933 630.2 755.867 623.4C759.067 616.6 764.133 613 771.067 613C775.2 613 776.933 613.8 779.333 616.867C782.267 620.467 782.667 620.6 786.533 619C791.467 617 791.2 613.933 785.867 608.333C783.2 605.667 781.2 605 773.733 604.733C768 604.467 763.2 605 760.667 606.2Z" fill="black"/>
<path d="M803.333 629.533L790.667 655H796C801.067 655 801.6 654.6 804.267 649L807.2 642.867L816.667 643.267C824.8 643.667 826 644.067 826.4 646.333C827.6 654.6 827.867 655 832.667 655C835.2 655 837.333 654.467 837.333 653.8C837.333 653.133 836 646.733 834.533 639.533C832.933 632.2 830.667 621.533 829.467 615.667L827.2 605L821.6 604.6L816.133 604.2L803.333 629.533ZM822.533 623.933C824.933 636.333 824.933 636.333 817.333 636.333C813.733 636.333 810.667 635.933 810.667 635.4C810.667 633.533 819.067 616.333 820 616.333C820.533 616.333 821.6 619.8 822.533 623.933Z" fill="black"/>
<path d="M850.133 605.933C849.867 606.867 848.267 616.333 846.8 627C845.2 637.667 843.6 648.333 843.067 650.6C842.4 654.867 842.533 655 847.067 655C852.133 655 852 655.267 854 641.933L854.933 636.2L860.4 636.6L866 637L869.2 645.933L872.267 655H877.467C880.4 655 882.667 654.733 882.667 654.467C882.667 654.2 880.8 649.667 878.667 644.333C875.6 636.733 875.067 634.333 876.267 633.4C877.2 632.867 878.4 632.333 879.067 632.333C881.2 632.333 885.333 623.4 885.333 619C885.333 613.4 882.533 609 877.333 606.333C872.4 603.8 850.8 603.533 850.133 605.933ZM874.267 615.8C876.133 618.467 875.467 622.467 872.267 625.933C870.8 627.667 868.267 628.333 863.067 628.333C856.4 628.333 856 628.2 856.533 625.267C856.933 623.667 857.6 620.067 858 617.133L858.8 612.067L865.6 612.6C870.133 613.133 873.067 614.2 874.267 615.8Z" fill="black"/>
<path d="M898 629.667L885.333 655H890.8C895.867 655 896.267 654.733 898.8 649L901.467 643H910.667C920.667 643 920.267 642.733 921.6 651.667C921.867 653.667 923.2 654.467 927.2 654.733C932.267 655.133 932.267 655.133 931.333 651.4C930.267 647.133 921.333 605.667 921.333 604.867C921.333 604.6 918.933 604.333 916 604.333H910.667L898 629.667ZM917.2 624.867C919.467 636.6 919.467 636.333 912 636.333C908.4 636.333 905.333 635.933 905.333 635.267C905.333 633 914 615.133 914.8 616.067C915.2 616.6 916.267 620.6 917.2 624.867Z" fill="black"/>
<path d="M943.867 605.267C943.867 605.933 942.267 617.267 940.267 630.6L936.533 655H941.467H946.4L947.867 644.6C948.667 639 949.733 630.867 950.133 626.6C950.667 622.333 951.6 619.133 952.267 619.267C952.933 619.533 956.933 627.667 960.933 637.4L968.4 655H973.6C976.4 655 978.667 654.6 978.667 654.067C978.667 652.733 985.333 609.533 985.867 606.6C986.267 604.733 985.467 604.333 981.467 604.333H976.533L974.133 621.267C971.867 637.4 971.333 640.2 970.267 638.867C970 638.6 966.533 630.733 962.533 621.267L955.467 604.333H949.733C946.533 604.333 944 604.733 943.867 605.267Z" fill="black"/>
<path d="M992.933 605.267C992.4 605.667 992 607.667 992 609.667C992 613.133 992.267 613.267 998.667 612.867C1005.07 612.467 1005.33 612.6 1005.33 616.067C1005.33 618.067 1004.13 626.867 1002.67 635.667C999.333 656.2 999.2 655 1004.53 655C1009.73 655 1009.2 656.467 1012.67 633C1015.73 612.6 1015.07 613.667 1022.67 613.667C1029.2 613.667 1030.67 612.467 1030.67 606.867C1030.67 604.467 1029.47 604.333 1012.27 604.333C1002.13 604.333 993.333 604.733 992.933 605.267Z" fill="black"/>
<path d="M1036.8 607.933C1036.4 610.067 1034.8 620.067 1033.33 630.333C1031.87 640.6 1030.27 650.333 1029.87 652.067C1029.33 654.867 1029.6 655.133 1034.27 654.733L1039.33 654.333L1042.13 635.667C1043.73 625.4 1045.33 614.2 1045.87 610.6L1046.8 604.333H1042.13C1038.13 604.333 1037.47 604.867 1036.8 607.933Z" fill="black"/>
<path d="M1056.67 607.267C1056 610.2 1049.33 653.267 1049.33 654.6C1049.33 655 1055.47 655 1063.07 654.733C1075.33 654.333 1077.47 653.933 1082.27 650.733C1089.73 645.8 1093.47 637.667 1093.6 626.467C1093.73 610.333 1086.93 604.333 1068.4 604.333C1058.13 604.333 1057.33 604.467 1056.67 607.267ZM1080.27 616.333C1083.6 620.467 1084.4 624.6 1083.33 631.667C1082 640.733 1078 644.6 1068.8 645.667C1064.53 646.067 1060.93 646.2 1060.8 645.8C1060.53 645.4 1061.6 637.533 1063.07 628.467L1065.73 612.067L1071.87 612.733C1075.87 613.133 1078.67 614.333 1080.27 616.333Z" fill="black"/>
<path d="M1106.4 629.533L1094 655H1099.07C1103.87 655 1104.27 654.6 1106.8 649L1109.47 642.867L1119.07 643.267L1128.53 643.667L1129.73 649.267C1130.8 654.733 1131.07 655 1135.47 655H1140L1139.2 649.667C1138.67 646.733 1136.4 635.533 1134.13 624.733L1129.87 605L1124.4 604.6L1118.8 604.2L1106.4 629.533ZM1125.6 625.667C1126.67 630.867 1127.2 635.267 1126.93 635.667C1126 636.467 1113.33 636.6 1113.33 635.667C1113.33 633.933 1121.87 616.333 1122.67 616.333C1123.07 616.333 1124.4 620.6 1125.6 625.667Z" fill="black"/>
</svg>
