<svg width="1192" height="656" viewBox="0 0 1192 656" fill="none" xmlns="http://www.w3.org/2000/svg">
<path d="M593.867 2.50098C592.133 4.36765 571.867 46.901 571.867 48.6343C571.867 49.0343 568.933 56.101 565.333 64.3676C561.733 72.501 558.133 81.5677 557.2 84.501C556.267 87.4343 553.6 93.701 551.2 98.501C548.8 103.301 544.667 112.901 541.867 119.834C536.933 132.368 526.933 155.834 515.333 182.368C508.667 197.301 508 200.768 511.333 202.101C514.4 203.301 516.267 200.234 522.4 184.634C525.333 177.168 530.8 163.968 534.667 155.168C538.4 146.368 543.733 133.701 546.533 127.168C549.333 120.501 554.4 108.501 557.867 100.501C561.2 92.3677 565.867 81.4343 568 76.101C570.133 70.7676 573.467 63.1677 575.467 59.4343C577.333 55.5677 583.067 42.901 588 31.1677L596.933 9.83432L605.333 9.03433C613.867 8.10098 861.2 7.4343 861.2 8.23431C861.2 9.96765 854.4 28.2343 852 32.7677C850.533 35.9677 847.733 42.2343 846 46.7677C844.267 51.4343 839.2 63.4343 834.667 73.5677C830.267 83.8343 826.267 93.4343 825.733 94.901C825.333 96.501 822.8 101.968 820.4 106.901C817.867 111.834 812.133 125.034 807.733 136.234C799.6 156.634 794.667 168.234 785.2 189.168C782.267 195.434 778.267 205.034 776.133 210.501C773.867 215.968 770.4 224.368 768.133 229.168C765.867 233.968 758.533 250.768 751.867 266.501C745.067 282.234 739.2 295.701 738.533 296.501C738 297.168 735.867 301.968 733.867 307.168C731.867 312.234 727.2 323.034 723.467 331.168C712.8 354.501 705.467 371.568 699.733 385.568C696.933 392.768 692.4 402.768 689.867 407.834C684.933 417.568 685.333 418.634 692.133 415.968C694.133 415.168 696.133 412.368 697.733 408.234C700.667 400.501 720.667 354.368 727.867 338.501C730.8 332.234 735.6 321.168 738.667 313.834C741.6 306.501 745.2 298.634 746.533 296.501C747.867 294.234 752.4 283.834 756.533 273.168C760.8 262.501 766 250.234 768.267 245.834C770.4 241.434 774.533 232.501 777.2 225.834C783.467 210.901 796.533 180.368 803.6 164.501C806.4 157.834 810 149.168 811.6 145.168C813.067 141.168 816.4 133.034 818.933 127.168C821.467 121.301 828.133 105.701 833.733 92.501C839.333 79.301 845.2 65.8343 846.8 62.501C852.133 51.1677 858.8 35.1676 862.667 23.9677C867.2 11.4343 869.867 5.70099 872.933 2.10098C874.8 -0.0323486 868.4 -0.16568 735.333 0.100983C613.2 0.500977 595.467 0.767639 593.867 2.50098Z" fill="#FF6B00"/>
<path d="M275.333 18.7677C271.067 28.501 266.4 39.701 265.067 43.701C263.6 47.701 262 51.5676 261.2 52.501C259.867 54.101 250.133 77.0343 239.733 103.168C236.8 110.501 233.6 118.234 232.533 120.501C227.6 131.701 223.733 141.568 224.267 142.101C224.667 142.368 226.4 142.234 228.133 141.834C231.867 140.901 232 140.634 248.533 99.8343C254.533 84.7677 262.267 66.501 265.6 59.1677C268.8 51.8343 274.667 37.9677 278.533 28.501C282.4 18.901 286.267 10.3676 287.067 9.30098C288.267 7.83432 303.067 7.56766 380.533 8.23431C431.067 8.76765 486.4 9.16765 503.2 9.16765C520.133 9.16765 534.667 9.70099 535.733 10.3676C537.067 11.301 536.533 13.701 532.667 23.0343C530 29.301 525.733 39.701 523.067 46.101C520.533 52.6343 515.467 64.3677 511.867 72.501C504.667 88.901 490.533 122.101 479.2 149.034C475.067 158.901 472 167.701 472.4 168.634C473.867 172.501 478.4 168.634 481.867 160.768C490.8 140.634 515.333 82.501 523.333 62.6343C527.333 52.7677 531.733 42.901 533.067 40.6343C534.533 38.3676 537.467 31.9677 539.733 26.2343C541.867 20.6343 545.333 12.901 547.2 9.03432C549.067 5.16765 550.533 1.96765 550.533 1.96765C550.533 1.83432 490.4 1.70099 416.8 1.43431L283.2 0.900986L275.333 18.7677Z" fill="#2F9B2E"/>
<path d="M915.333 4.10098C914.267 5.83432 912.4 9.56766 911.067 12.501C909.867 15.4343 907.733 20.501 906.267 23.8343C904.667 27.1676 901.2 35.9677 898.267 43.5677C895.467 51.1676 891.333 61.301 889.067 66.2343C886.8 71.1676 881.467 83.5677 877.2 93.8343C872.933 104.101 866.133 119.968 862 129.168C855.067 144.901 838.667 183.834 828.267 209.168C825.733 215.434 821.333 225.301 818.533 231.168C812.4 243.834 806.533 257.301 797.2 279.834C788.8 300.368 780.8 318.901 775.067 330.901C772.667 335.834 770 342.101 769.067 344.901C768.267 347.568 762.267 362.101 755.867 377.168C749.467 392.234 743.733 405.968 743.2 407.834C742.667 409.701 741.467 412.501 740.4 414.101C738.667 416.768 738.667 417.168 740.533 417.168C744.667 417.168 747.333 414.634 750.133 408.234C756.8 393.301 763.067 378.634 765.867 371.168C767.6 366.768 772.933 354.368 777.733 343.568C782.533 332.768 786.533 323.434 786.533 323.034C786.533 322.101 790.667 312.501 801.867 287.834C804.4 282.368 809.733 269.968 813.6 260.501C817.6 250.901 824.8 234.101 829.467 223.168C834.267 212.101 842.933 191.701 848.933 177.834C854.8 163.834 863.333 143.834 867.867 133.168C872.4 122.501 879.333 105.968 883.067 96.501C886.933 86.901 892.533 74.101 895.6 67.8343C898.533 61.5677 903.733 49.301 906.933 40.501C914.933 18.901 919.733 9.56766 923.067 8.63431C927.733 7.30096 1176.4 7.83432 1178.4 9.0343C1180 9.96765 1178.67 14.2343 1171.47 31.4343C1166.53 43.1676 1161.73 55.0343 1160.67 57.9677C1159.6 60.7676 1155.73 69.4343 1152.13 77.1676C1148.4 84.901 1141.2 101.701 1136.13 114.501C1124.13 144.501 1112.27 171.968 1096.53 206.501C1094 211.968 1085.6 232.101 1077.73 251.168C1069.87 270.234 1060.53 292.101 1056.93 299.834C1053.33 307.568 1047.07 321.968 1043.2 331.834C1039.33 341.701 1034 354.768 1031.47 360.768L1026.67 371.701L1030.93 370.901C1033.33 370.501 1035.73 369.701 1036.27 369.168C1036.93 368.634 1040.13 360.768 1043.33 351.701C1046.67 342.634 1052.27 328.501 1055.87 320.501C1061.73 307.301 1070.13 288.234 1081.47 261.834C1085.47 252.501 1091.47 238.234 1106.13 202.501C1110.53 191.834 1117.73 175.701 1122.27 166.501C1126.67 157.301 1132.8 143.434 1135.6 135.834C1138.53 128.101 1148.53 103.834 1157.87 81.8343C1167.2 59.8343 1176.13 38.2343 1177.87 33.8343C1183.33 19.0343 1189.33 5.96765 1191.47 3.56763C1193.47 1.30096 1187.6 1.16763 1055.47 1.16763H917.2L915.333 4.10098Z" fill="#2F9B2E"/>
<path d="M281.2 152.101C220.533 153.568 218.667 154.368 170.667 198.901C130.667 235.968 123.6 243.034 121.067 248.501C118.133 255.301 115.6 279.834 115.467 305.834C115.2 328.768 116.667 334.501 125.2 345.968C133.6 357.034 137.867 359.034 155.733 359.834L170.933 360.501L172.4 366.634C176 380.634 187.067 393.034 202.267 400.234C210.533 404.101 212.267 404.501 224.533 404.501C236.533 404.368 238.8 403.968 248 400.101C253.6 397.701 259.867 393.834 262 391.434C267.733 385.301 278.267 369.168 279.2 365.034L280.133 361.434L302.267 360.634C314.533 360.234 334.8 359.834 347.2 359.834C359.733 359.834 391.867 359.701 418.8 359.701H467.733L469.2 365.434C473.333 380.634 482.4 391.168 498.4 398.901C509.067 404.101 510.667 404.501 521.2 404.501C531.067 404.501 533.867 403.834 542.8 399.968C556.4 394.234 564.667 386.634 570.933 374.501C573.6 369.168 575.867 363.568 575.867 361.968C575.867 359.034 576.4 358.901 590.933 358.101C613.333 356.901 618.267 354.501 624.533 341.968C628.267 334.368 628.667 325.434 626.667 296.368C625.2 277.434 622.533 270.501 613.2 261.034C601.733 249.568 582.667 242.634 540.533 234.501C515.333 229.701 515.867 229.834 504.267 220.234C498.4 215.168 486 204.768 476.667 196.901C446.667 171.701 426.8 159.568 406.4 154.234C396.133 151.568 392 151.301 357.2 151.168C336.267 151.168 302.133 151.568 281.2 152.101ZM382.8 173.834C407.867 177.301 417.467 181.568 442.8 200.634C459.333 213.034 486.8 235.968 486.133 236.768C485.867 237.034 450 237.434 406.4 237.568L327.2 237.834L326.8 206.501C326.667 189.301 326.8 174.501 327.067 173.568C328.133 171.034 363.867 171.301 382.8 173.834ZM307.867 205.168C307.867 222.234 307.6 236.501 307.333 236.768C306.4 237.834 284.667 238.634 249.733 238.901C209.467 239.301 207.867 239.568 207.867 245.968C207.867 247.701 209.2 250.501 210.8 252.101L213.6 254.901L366.667 254.101L519.6 253.301L536.133 256.634C564.133 262.368 573.467 265.034 584.8 270.501C594.267 275.168 596 276.634 598.4 281.568C602 289.301 604.267 307.434 603.2 320.901C602.8 327.034 602 332.901 601.6 333.968C600.667 336.501 578.533 336.768 578.533 334.101C578.533 328.901 568.533 312.234 560.8 304.634C548.267 292.101 533.867 287.834 513.067 290.768C491.6 293.701 474.533 308.901 469.2 329.834L467.067 337.834L451.2 338.768C442.533 339.301 400.533 339.568 358 339.434L280.533 339.168L279.6 332.768C278.667 325.834 272.8 314.234 265.6 305.568C262.533 301.701 257.867 298.368 250.8 294.901C241.067 290.234 239.867 289.968 227.2 289.834C211.067 289.834 202 292.368 192.533 299.434C184.533 305.568 172.267 323.301 171.6 329.434C171.333 333.034 170.533 333.968 167.2 334.634C164.133 335.301 163.867 335.568 166.267 335.701C172.133 335.968 169.067 338.501 162.933 338.368C158.4 338.368 157.333 337.968 159.2 337.301C161.2 336.501 160.267 336.101 155.467 335.568C147.867 334.634 145.6 332.901 142.133 325.301C140 320.368 139.6 316.634 139.733 301.968C140 277.034 141.6 263.701 145.067 258.101C148.533 252.501 197.067 206.501 209.2 197.434C220.8 188.768 235.6 179.034 240.533 177.034C244.133 175.568 284.933 173.301 302.267 173.701L308.133 173.834L307.867 205.168ZM538.267 316.101C544 318.768 551.467 326.901 554.267 333.568C556.267 338.368 556.267 350.634 554.267 357.434C553.467 360.368 550.133 365.701 546.933 369.168C535.467 381.834 522.8 384.501 508 377.034C498.8 372.368 494.267 366.901 491.067 356.368C488.533 347.834 488.667 342.634 491.867 334.234C498.8 315.434 519.733 307.301 538.267 316.101ZM240.8 316.234C246.8 319.434 254.4 327.301 256.667 332.634C259.6 339.568 259.067 354.901 255.733 361.568C252 368.901 245.867 375.434 239.333 378.768C232.4 382.368 217.867 381.701 209.6 377.434C199.2 372.101 191.867 359.434 191.867 347.034C191.867 334.101 201.467 318.901 212.133 314.901C218.133 312.634 235.333 313.434 240.8 316.234Z" fill="#2F9B2E"/>
<path d="M390 375.701C386.8 376.368 385.6 377.701 383.733 382.501C382.4 385.834 379.467 393.301 377.2 399.168C374.933 405.034 371.467 412.234 369.6 415.034C366.933 419.034 366.667 420.101 368.533 419.434C369.733 418.901 372.267 418.501 374 418.501C376 418.501 377.6 417.568 378.133 416.101C378.533 414.901 380.267 410.501 382 406.501C386.667 395.168 394.4 375.301 394.133 375.168C394 375.034 392.133 375.301 390 375.701Z" fill="#2F9B2E"/>
<path d="M436 375.701C433.333 376.368 431.467 379.834 424.933 395.168C420.667 405.301 416.267 414.634 415.2 415.834C414.133 417.034 413.2 418.368 413.2 418.768C413.2 419.701 421.733 418.234 423.333 416.901C424.933 415.701 440.533 375.968 439.733 375.301C439.467 375.168 437.733 375.301 436 375.701Z" fill="#FF6B00"/>
<path d="M1129.87 413.434C1124 420.901 1119.07 427.434 1118.8 427.834C1118.67 428.234 1122.53 428.234 1127.47 428.101C1136.27 427.568 1136.53 427.434 1156.93 413.701L1177.47 399.834H1158.93H1140.53L1129.87 413.434Z" fill="#FF6B00"/>
<path d="M1023.2 407.034C1022.93 408.501 1021.73 417.301 1020.53 426.501C1009.87 511.168 1008.67 518.901 1004 525.168C999.2 531.701 994.267 533.434 979.2 533.701L965.2 533.834V547.434V561.034L972.933 562.101C977.067 562.634 987.2 563.168 995.2 563.168C1008.13 563.168 1010.67 562.768 1017.2 559.701C1036 550.901 1039.87 542.634 1046.4 497.034C1047.87 487.168 1050 472.501 1051.2 464.501C1052.4 456.368 1054.8 439.968 1056.53 427.834C1058.27 415.834 1059.6 405.834 1059.47 405.701C1059.33 405.568 1051.2 405.168 1041.47 404.768C1024.27 404.101 1023.87 404.234 1023.2 407.034Z" fill="#FF6B00"/>
<path d="M27.2 409.434C26.4 414.634 24.6667 426.101 15.2 491.834C11.2 519.301 7.06665 546.234 6.13332 551.434C5.06665 556.768 4.39998 561.301 4.66665 561.434C4.79998 561.701 27.4667 561.701 54.9333 561.434L104.8 561.168L105.733 552.101C106.267 547.168 107.067 540.634 107.467 537.434L108.267 531.834H76H43.7333L44.6667 523.168C45.2 518.501 46.2667 510.768 47.0667 506.234L48.5333 497.834L76.5333 497.168L104.533 496.501L106.133 485.168C106.933 478.901 107.733 472.501 107.733 470.768L107.867 467.701L80.9333 467.834L53.8667 467.968L54.1333 460.234C54.4 455.968 55.2 448.501 56 443.434L57.4667 434.501H88H118.533L118.667 431.434C118.667 429.834 119.467 423.301 120.4 416.768L122 405.168H75.0667H28L27.2 409.434Z" fill="#2F9B2E"/>
<path d="M573.2 406.101C560.667 408.234 555.467 413.434 555.333 423.968C555.2 433.434 558 435.834 569.467 435.834C584.267 435.834 591.467 431.301 592.8 421.301C594.267 410.901 585.333 403.968 573.2 406.101Z" fill="#2F9B2E"/>
<path d="M247.867 431.301C246.4 436.101 245.2 441.168 245.2 442.501C245.2 447.568 243.733 449.034 239.867 448.234C235.6 447.434 235.733 446.901 233.333 462.634C231.6 473.034 231.6 474.501 232.933 474.368C233.467 474.234 235.467 474.234 237.6 474.368C240.933 474.501 241.2 474.901 241.2 480.101C241.2 483.168 239.333 498.368 237.067 513.834C234.8 529.168 233.333 543.701 233.867 545.968C234.933 552.101 239.067 556.768 246.933 560.768C252.933 563.701 255.6 564.234 265.867 564.368C272.533 564.368 280.667 563.968 284 563.301L290.267 562.368L291.867 551.434C292.667 545.434 293.733 539.168 294.133 537.568C294.8 534.634 294.533 534.501 284.4 534.768C271.467 535.034 267.867 533.434 267.867 527.434C267.867 518.768 274.533 476.768 276.133 475.168C276.4 474.901 283.867 474.501 292.8 474.234L309.067 473.834L309.867 465.168C310.267 460.368 310.933 455.168 311.2 453.701C311.733 451.301 311.067 450.768 306.8 449.968C304.133 449.568 296.933 449.168 290.933 449.168C284.933 449.168 279.6 448.634 279.2 447.834C278.8 447.168 279.6 441.434 281.2 435.034C282.667 428.768 283.867 423.434 283.867 423.034C283.867 422.768 276.4 422.501 267.2 422.501H250.667L247.867 431.301Z" fill="#2F9B2E"/>
<path d="M358.4 446.501C350.933 447.834 340.933 452.101 335.067 456.501C331.2 459.568 320.267 475.434 321.333 476.368C321.6 476.634 328 477.568 335.6 478.368L349.333 479.968L352 476.501C356 471.568 361.467 469.168 369.2 469.168C375.067 469.168 376.667 469.834 380 473.034C383.067 476.234 383.867 478.101 383.867 483.034C383.867 489.834 384.533 489.434 364.533 493.701C343.6 498.101 331.2 501.568 324.533 504.501C304.267 513.834 298.8 540.101 313.867 555.301C327.067 568.368 348.267 568.368 368 555.034C371.733 552.501 375.067 550.501 375.333 550.501C375.6 550.501 375.867 552.901 375.867 555.834V561.168H389.867H403.733L404.4 556.768C410 521.834 414.667 481.834 414.267 473.701C413.867 464.768 413.467 463.568 409.333 459.301C398.4 447.968 378.8 443.034 358.4 446.501ZM379.2 515.434C378 523.434 375.2 530.234 371.467 534.368C367.733 538.368 358.267 542.501 352.533 542.501C346.933 542.501 340.4 537.168 339.2 531.701C337.333 523.568 343.467 519.034 364.933 512.501C380.133 507.834 380.4 507.834 379.2 515.434Z" fill="#2F9B2E"/>
<path d="M640.533 446.368C632.533 447.701 618.667 455.701 611.467 462.901C599.2 474.901 593.333 494.368 595.067 517.434C596.8 543.434 607.6 556.768 632 563.168C646.533 567.034 664.267 564.368 682.4 555.301C703.6 544.901 714.8 520.234 712.933 488.634C711.733 469.301 703.467 457.168 686.8 449.434C680.133 446.501 677.2 445.968 662.533 445.701C653.333 445.568 643.467 445.834 640.533 446.368ZM671.467 475.301C678.4 480.368 680.133 485.701 679.333 499.568C678.667 514.101 674.8 523.701 667.2 530.368C658.933 537.568 646 539.301 638.4 534.101C631.467 529.434 627.867 522.101 627.867 512.234C627.867 494.101 634 480.768 645.333 474.768C652.8 470.768 665.733 471.034 671.467 475.301Z" fill="#2F9B2E"/>
<path d="M895.6 447.168C879.6 451.168 867.067 461.034 858 476.368C849.6 490.768 846.533 519.034 851.733 534.634C855.467 545.834 857.867 549.701 864 554.901C878 566.901 906.667 568.634 927.733 558.768C937.2 554.368 948.133 543.568 950.133 536.634C951.067 533.701 951.6 531.168 951.467 531.034C951.333 530.901 944.933 529.968 937.333 529.034L923.6 527.434L919.333 532.101C913.867 538.501 910.8 539.834 902.133 539.834C896.8 539.834 893.733 539.034 890.4 536.768C884.667 532.901 879.867 524.501 879.867 518.101V513.168H917.733H955.467L956.4 507.034C960.4 477.168 951.2 455.434 931.2 447.834C924.667 445.301 904.133 444.901 895.6 447.168ZM918 469.968C922.8 473.168 927.867 482.501 927.867 488.234V493.168H920.933C917.067 493.301 907.467 493.568 899.733 494.101C890.8 494.501 885.2 494.368 884.667 493.434C883.6 491.701 887.067 481.968 890.667 476.901C892.267 474.768 895.467 471.701 897.733 470.368C902.933 467.168 913.333 467.034 918 469.968Z" fill="#2F9B2E"/>
<path d="M1105.47 446.634C1096.93 448.234 1086.4 453.434 1081.47 458.501C1077.2 462.768 1069.73 475.568 1070.93 476.634C1071.2 477.034 1077.73 477.701 1085.33 478.368C1098.67 479.434 1099.33 479.301 1101.87 476.368C1108.4 469.034 1121.73 466.768 1128.27 471.834C1134.4 476.634 1134.8 490.501 1128.8 490.501C1122.67 490.634 1084.8 499.834 1078.13 502.901C1059.33 511.568 1050.67 528.368 1056.53 545.034C1059.6 553.701 1063.33 557.968 1071.2 561.834C1083.87 568.101 1101.33 565.568 1117.07 555.168C1120.93 552.634 1124.4 550.501 1124.67 550.501C1124.93 550.501 1125.2 552.901 1125.2 555.834V561.168H1139.2C1146.93 561.168 1153.2 560.768 1153.2 560.101C1153.2 559.568 1153.73 555.568 1154.53 551.168C1155.2 546.768 1156.13 539.568 1156.53 535.168C1156.93 530.768 1158 522.101 1159.07 515.834C1164.8 480.234 1165.07 470.901 1160.4 461.968C1153.73 449.168 1128.4 442.101 1105.47 446.634ZM1126.67 521.034C1123.33 531.968 1119.87 536.768 1112.67 539.968C1097.6 546.768 1084.4 538.634 1089.73 525.968C1092.13 520.234 1097.87 517.168 1115.47 512.101C1130.8 507.701 1130.67 507.701 1126.67 521.034Z" fill="#FF6B00"/>
<path d="M164.133 448.501C151.733 451.968 144 455.968 138.667 461.834C121.867 480.101 123.067 501.834 141.467 511.301C143.733 512.501 152.533 514.901 161.067 516.634C177.2 519.968 182.933 522.768 183.6 527.701C184.267 532.368 177.467 537.968 168.8 539.968C158.267 542.234 151.867 540.634 149.2 534.901C148 532.234 146.533 530.768 145.333 531.168C144.4 531.568 138.133 532.234 131.733 532.768C118.533 533.701 118.4 533.834 121.333 544.234C125.867 560.501 148.667 568.768 172.8 562.768C199.733 555.968 213.6 542.234 213.6 522.368C213.6 506.234 204 497.834 179.333 493.168C165.067 490.368 159.067 487.834 157.867 483.701C156.533 479.568 160.933 474.234 168 471.568C179.333 467.168 188.667 469.434 191.867 477.168C192.933 479.701 194.267 481.034 195.333 480.634C196.4 480.234 202.267 479.168 208.533 478.368L220 476.768L219.067 471.301C218 464.901 214.533 457.434 210.933 454.234C203.867 447.834 177.867 444.634 164.133 448.501Z" fill="#2F9B2E"/>
<path d="M469.733 448.368C443.467 454.901 427.733 481.168 427.467 518.501C427.467 528.634 428 532.768 430.533 539.034C437.2 556.501 452.267 565.168 475.067 565.168C492.933 565.034 512.133 556.901 520 546.101C523.733 541.034 528.4 531.701 527.6 531.168C526.667 530.634 501.6 523.834 500.267 523.834C499.333 523.834 497.333 526.234 495.733 529.168C492.267 535.301 485.6 538.501 476.133 538.501C470.8 538.501 469.067 537.834 466.267 534.768C460.933 529.034 459.867 525.968 459.867 516.234C459.867 506.101 462.533 494.234 466.8 485.301C472.667 473.168 488.4 467.968 497.067 475.301C499.333 477.168 501.2 479.568 501.2 480.634C501.2 483.701 503.6 483.834 519.2 482.101L533.867 480.368L533.467 476.368C532.4 465.434 525.467 455.434 515.333 450.101C510.667 447.701 507.2 447.168 493.2 446.901C482.933 446.768 473.867 447.301 469.733 448.368Z" fill="#2F9B2E"/>
<path d="M794.533 448.634C789.733 449.701 782 452.368 777.333 454.501C767.733 459.034 766.533 459.301 766.533 456.501C766.533 455.434 765.333 453.301 763.867 451.834C761.6 449.568 759.467 449.168 748.8 449.168H736.267L733.333 471.434C730.8 490.368 724.533 536.501 721.6 556.768L720.8 562.501L736.667 562.101L752.533 561.834L756.8 532.501C763.333 487.168 765.333 481.168 776.4 473.968C780.4 471.301 783.467 470.501 788.933 470.501C795.333 470.501 796.667 471.034 800.667 475.034C803.2 477.568 805.2 480.634 805.2 482.101C805.2 483.434 803.067 501.301 800.533 521.701C798 542.234 795.867 559.568 795.867 560.368C795.867 561.301 800.933 561.701 811.467 561.568L827.2 561.301L831.467 532.234C837.333 490.901 839.067 474.501 838 467.434C835.6 451.434 817.2 443.434 794.533 448.634Z" fill="#2F9B2E"/>
<path d="M554 449.434C553.733 450.368 552.4 459.301 551.2 469.168C548.267 493.701 541.6 540.368 539.333 551.834L537.6 561.168H554.533H571.467L572.267 556.101C573.067 551.301 586.533 449.434 586.533 448.368C586.533 448.101 579.333 447.834 570.533 447.834C558.8 447.834 554.267 448.234 554 449.434Z" fill="#2F9B2E"/>
<path d="M25.7333 590.101C24.5333 592.901 21.6 599.968 19.2 605.834C16.6667 611.701 12.5333 622.501 9.86667 629.834C7.2 637.168 3.86667 645.168 2.53333 647.434L0 651.834L76.2667 652.101C118.267 652.368 182 652.501 218 652.501H283.333L288.933 639.834C292 632.901 295.733 624.101 297.067 620.501C300.933 610.234 310.667 588.768 312.133 586.768C313.2 585.568 312.533 585.168 309.333 585.168C304.267 585.168 303.2 586.768 295.867 605.168C292.8 612.901 288.267 623.434 285.867 628.501C283.333 633.701 280.933 639.568 280.4 641.701L279.467 645.568L146.933 644.768C74 644.368 14 643.701 13.6 643.301C12.2667 641.968 32.2667 591.168 35.4667 587.434C37.4667 585.301 37.3333 585.168 32.6667 585.168C28.2667 585.168 27.4667 585.701 25.7333 590.101Z" fill="#2F9B2E"/>
<path d="M347.867 593.434C345.867 598.101 339.867 611.968 334.533 624.501C329.333 636.901 324.133 648.501 323.067 650.101C321.2 653.034 321.333 653.168 324.4 653.168C329.867 653.168 332.667 649.034 341.2 628.501C345.733 617.434 352 603.301 355.067 596.768L360.667 585.168H356.133C352 585.168 351.467 585.701 347.867 593.434Z" fill="#FF6B00"/>
<path d="M395.067 606.368C381.733 614.501 384.667 627.568 401.067 632.901C410 635.701 411.867 638.234 408.8 643.034C406.8 645.968 405.467 646.501 399.867 646.501C394.933 646.501 392.667 645.834 390.667 643.701C388.267 641.034 387.867 641.034 384 643.168C380.4 644.901 380 645.568 381.2 647.968C385.467 655.701 399.467 658.234 410.133 653.034C416.667 649.968 419.867 644.901 419.867 638.101C419.867 631.701 417.733 629.568 407.2 625.301C398.667 621.834 397.867 621.301 397.867 617.701C397.867 614.368 398.533 613.701 402.933 612.634C407.2 611.568 408.533 611.834 411.867 614.234C415.2 616.768 416.267 616.901 419.2 615.568C423.467 613.701 423.467 612.501 418.667 607.701C415.2 604.368 413.733 603.834 406.933 603.834C401.733 603.834 397.867 604.634 395.067 606.368Z" fill="white"/>
<path d="M432.667 607.434C429.067 626.101 427.733 640.634 429.067 645.434C433.333 659.701 457.067 659.434 464.133 645.168C466 641.434 471.867 610.901 471.867 605.168C471.867 604.501 469.733 603.834 467.2 603.834C464.667 603.834 462.533 604.234 462.533 604.768C462.4 611.034 456.8 639.568 455.2 641.968C452.8 645.701 447.467 647.301 442.667 645.701C439.6 644.634 439.2 643.568 438.8 637.834C438.533 634.234 439.333 625.834 440.4 619.034C443.2 603.168 443.2 603.834 438 603.834C434 603.834 433.333 604.368 432.667 607.434Z" fill="white"/>
<path d="M483.867 627.834C477.333 641.168 471.867 652.634 471.867 653.301C471.867 653.968 474 654.501 476.667 654.501C480.933 654.501 481.6 653.968 483.6 649.168C486.133 643.034 488.133 642.101 498.533 642.768C504.667 643.034 505.867 643.568 506.267 645.834C507.467 654.101 507.733 654.501 512.667 654.501C517.333 654.501 517.333 654.368 516.4 650.101C515.867 647.834 513.6 636.501 511.333 625.168L507.067 604.501L501.467 604.101L495.867 603.701L483.867 627.834ZM502.4 624.368C504.533 636.101 504.667 635.834 497.2 635.834C493.6 635.834 490.533 635.434 490.533 634.768C490.533 632.368 499.2 614.634 500.133 615.568C500.533 616.101 501.6 620.101 502.4 624.368Z" fill="white"/>
<path d="M539.867 604.101C539.867 604.901 543.733 622.234 547.2 637.168C549.067 645.568 551.2 653.034 551.733 653.568C552.4 654.234 554.8 654.501 557.2 654.234C562.133 653.834 560.533 656.101 579.733 618.768L587.467 603.834H582.267H577.067L567.467 623.301C562.267 633.968 557.733 642.101 557.467 641.434C557.2 640.634 555.467 632.101 553.467 622.234L549.867 604.501L544.8 604.101C542.133 603.834 539.867 603.834 539.867 604.101Z" fill="white"/>
<path d="M590.8 628.634C584 642.234 578.533 653.568 578.533 653.968C578.533 654.234 580.8 654.501 583.6 654.501C588.133 654.501 588.8 654.101 591.2 648.768L593.867 643.168H603.2H612.533L613.733 648.768C614.933 654.234 615.333 654.501 619.867 654.501H624.667L619.333 629.168L614 603.834H608.533H603.067L590.8 628.634ZM609.6 624.901C610.667 630.234 611.2 634.768 610.8 635.168C609.733 636.234 598.8 635.968 598.133 634.768C597.467 633.568 606.4 613.834 607.2 614.768C607.6 615.034 608.667 619.701 609.6 624.901Z" fill="white"/>
<path d="M645.067 606.901C634.133 612.634 627.6 627.568 630.4 640.101C633.333 653.034 647.067 659.434 658.933 653.301C662.8 651.301 663.867 651.168 663.867 652.634C663.867 653.834 665.333 654.501 667.6 654.501C671.333 654.501 671.333 654.368 673.333 641.834L675.333 629.168H666.267H657.2V633.034C657.2 636.634 657.467 636.901 661.2 636.368C668.933 635.034 664.4 644.101 656 646.634C640.667 651.168 633.6 629.968 646.133 616.901C652.267 610.501 661.6 610.768 666.267 617.434C668.267 620.234 669.067 620.368 673.733 618.501C676.8 617.434 676.933 616.901 675.6 613.034C672.4 603.834 656.933 600.768 645.067 606.901Z" fill="white"/>
<path d="M689.333 628.634C682.667 642.368 677.2 653.834 677.2 654.101C677.2 654.234 679.333 654.501 681.867 654.501C686.133 654.501 686.8 653.968 689.467 648.501L692.4 642.368L701.733 642.768L711.067 643.168L712.267 648.768C713.333 654.234 713.6 654.501 718 654.501C720.8 654.501 722.533 653.834 722.4 652.768C722.4 651.968 720.133 640.634 717.467 627.834L712.4 604.501L706.933 604.101L701.333 603.701L689.333 628.634ZM707.6 623.568C710.133 635.834 710.133 635.834 702.533 635.834C698.933 635.834 695.867 635.568 695.867 635.168C695.867 633.568 704.267 615.834 705.067 615.834C705.6 615.834 706.667 619.301 707.6 623.568Z" fill="white"/>
<path d="M760.533 605.701C755.067 608.234 748.4 615.434 745.733 621.834C742.667 629.301 742.8 641.834 746.133 646.368C753.067 655.568 764.267 658.368 772.933 653.168C776.4 651.034 777.2 650.901 777.2 652.501C777.2 653.834 778.533 654.501 781.2 654.501C783.467 654.501 785.2 654.101 785.2 653.434C785.2 651.968 787.867 635.568 788.533 632.101C789.2 629.301 788.933 629.168 779.867 629.168H770.533V633.301C770.533 637.301 770.8 637.434 774.533 636.634C779.333 635.701 779.867 637.834 775.867 642.768C770.8 649.301 758.933 648.368 755.2 641.034C752.533 635.968 752.8 629.701 755.733 622.901C758.933 616.101 764 612.501 770.933 612.501C775.067 612.501 776.8 613.301 779.2 616.368C782.133 619.968 782.533 620.101 786.4 618.501C791.333 616.501 791.067 613.434 785.733 607.834C783.067 605.168 781.067 604.501 773.6 604.234C767.867 603.968 763.067 604.501 760.533 605.701Z" fill="white"/>
<path d="M803.2 629.034L790.533 654.501H795.867C800.933 654.501 801.467 654.101 804.133 648.501L807.067 642.368L816.533 642.768C824.667 643.168 825.867 643.568 826.267 645.834C827.467 654.101 827.733 654.501 832.533 654.501C835.067 654.501 837.2 653.968 837.2 653.301C837.2 652.634 835.867 646.234 834.4 639.034C832.8 631.701 830.533 621.034 829.333 615.168L827.067 604.501L821.467 604.101L816 603.701L803.2 629.034ZM822.4 623.434C824.8 635.834 824.8 635.834 817.2 635.834C813.6 635.834 810.533 635.434 810.533 634.901C810.533 633.034 818.933 615.834 819.867 615.834C820.4 615.834 821.467 619.301 822.4 623.434Z" fill="white"/>
<path d="M850 605.434C849.733 606.368 848.133 615.834 846.667 626.501C845.067 637.168 843.467 647.834 842.933 650.101C842.267 654.368 842.4 654.501 846.933 654.501C852 654.501 851.867 654.768 853.867 641.434L854.8 635.701L860.267 636.101L865.867 636.501L869.067 645.434L872.133 654.501H877.333C880.267 654.501 882.533 654.234 882.533 653.968C882.533 653.701 880.667 649.168 878.533 643.834C875.467 636.234 874.933 633.834 876.133 632.901C877.067 632.368 878.267 631.834 878.933 631.834C881.067 631.834 885.2 622.901 885.2 618.501C885.2 612.901 882.4 608.501 877.2 605.834C872.267 603.301 850.667 603.034 850 605.434ZM874.133 615.301C876 617.968 875.333 621.968 872.133 625.434C870.667 627.168 868.133 627.834 862.933 627.834C856.267 627.834 855.867 627.701 856.4 624.768C856.8 623.168 857.467 619.568 857.867 616.634L858.667 611.568L865.467 612.101C870 612.634 872.933 613.701 874.133 615.301Z" fill="white"/>
<path d="M897.867 629.168L885.2 654.501H890.667C895.733 654.501 896.133 654.234 898.667 648.501L901.333 642.501H910.533C920.533 642.501 920.133 642.234 921.467 651.168C921.733 653.168 923.067 653.968 927.067 654.234C932.133 654.634 932.133 654.634 931.2 650.901C930.133 646.634 921.2 605.168 921.2 604.368C921.2 604.101 918.8 603.834 915.867 603.834H910.533L897.867 629.168ZM917.067 624.368C919.333 636.101 919.333 635.834 911.867 635.834C908.267 635.834 905.2 635.434 905.2 634.768C905.2 632.501 913.867 614.634 914.667 615.568C915.067 616.101 916.133 620.101 917.067 624.368Z" fill="white"/>
<path d="M943.733 604.768C943.733 605.434 942.133 616.768 940.133 630.101L936.4 654.501H941.333H946.267L947.733 644.101C948.533 638.501 949.6 630.368 950 626.101C950.533 621.834 951.467 618.634 952.133 618.768C952.8 619.034 956.8 627.168 960.8 636.901L968.267 654.501H973.467C976.267 654.501 978.533 654.101 978.533 653.568C978.533 652.234 985.2 609.034 985.733 606.101C986.133 604.234 985.333 603.834 981.333 603.834H976.4L974 620.768C971.733 636.901 971.2 639.701 970.133 638.368C969.867 638.101 966.4 630.234 962.4 620.768L955.333 603.834H949.6C946.4 603.834 943.867 604.234 943.733 604.768Z" fill="white"/>
<path d="M992.8 604.768C992.267 605.168 991.867 607.168 991.867 609.168C991.867 612.634 992.133 612.768 998.533 612.368C1004.93 611.968 1005.2 612.101 1005.2 615.568C1005.2 617.568 1004 626.368 1002.53 635.168C999.2 655.701 999.067 654.501 1004.4 654.501C1009.6 654.501 1009.07 655.968 1012.53 632.501C1015.6 612.101 1014.93 613.168 1022.53 613.168C1029.07 613.168 1030.53 611.968 1030.53 606.368C1030.53 603.968 1029.33 603.834 1012.13 603.834C1002 603.834 993.2 604.234 992.8 604.768Z" fill="white"/>
<path d="M1036.67 607.434C1036.27 609.568 1034.67 619.568 1033.2 629.834C1031.73 640.101 1030.13 649.834 1029.73 651.568C1029.2 654.368 1029.47 654.634 1034.13 654.234L1039.2 653.834L1042 635.168C1043.6 624.901 1045.2 613.701 1045.73 610.101L1046.67 603.834H1042C1038 603.834 1037.33 604.368 1036.67 607.434Z" fill="white"/>
<path d="M1056.53 606.768C1055.87 609.701 1049.2 652.768 1049.2 654.101C1049.2 654.501 1055.33 654.501 1062.93 654.234C1075.2 653.834 1077.33 653.434 1082.13 650.234C1089.6 645.301 1093.33 637.168 1093.47 625.968C1093.6 609.834 1086.8 603.834 1068.27 603.834C1058 603.834 1057.2 603.968 1056.53 606.768ZM1080.13 615.834C1083.47 619.968 1084.27 624.101 1083.2 631.168C1081.87 640.234 1077.87 644.101 1068.67 645.168C1064.4 645.568 1060.8 645.701 1060.67 645.301C1060.4 644.901 1061.47 637.034 1062.93 627.968L1065.6 611.568L1071.73 612.234C1075.73 612.634 1078.53 613.834 1080.13 615.834Z" fill="white"/>
<path d="M1106.27 629.034L1093.87 654.501H1098.93C1103.73 654.501 1104.13 654.101 1106.67 648.501L1109.33 642.368L1118.93 642.768L1128.4 643.168L1129.6 648.768C1130.67 654.234 1130.93 654.501 1135.33 654.501H1139.87L1139.07 649.168C1138.53 646.234 1136.27 635.034 1134 624.234L1129.73 604.501L1124.27 604.101L1118.67 603.701L1106.27 629.034ZM1125.47 625.168C1126.53 630.368 1127.07 634.768 1126.8 635.168C1125.87 635.968 1113.2 636.101 1113.2 635.168C1113.2 633.434 1121.73 615.834 1122.53 615.834C1122.93 615.834 1124.27 620.101 1125.47 625.168Z" fill="white"/>
</svg>
